<?xml version="1.0" encoding="utf-8"?>
<!-- Svg Vector Icons : http://www.onlinewebfonts.com/icon -->
<!DOCTYPE svg PUBLIC "-//W3C//DTD SVG 1.1//EN" "http://www.w3.org/Graphics/SVG/1.1/DTD/svg11.dtd">
<svg version="1.1" xmlns="http://www.w3.org/2000/svg" xmlns:xlink="http://www.w3.org/1999/xlink" x="0px" y="0px" viewBox="0 0 256 256" enable-background="new 0 0 256 256" xml:space="preserve">
<metadata> Svg Vector Icons : http://www.onlinewebfonts.com/icon </metadata>
<g><g><g><path fill="#000000" d="M151.9,53.6c-4.3,0.5-12,2.2-16.2,3.6c-28.7,10-48.8,36.3-50.5,66c-0.3,5.4-0.8,6.5-3,7.7c-1.2,0.6-2.3,0.7-5,0.5c-4.5-0.3-8.6-1.8-18.4-6.5c-9-4.3-14.2-6-20.9-6.7c-8-0.9-17.7,0.9-24.7,4.4l-3.2,1.6l2.1,3c1.2,1.7,2.2,3,2.2,3c0.1,0,1.5-0.6,3.2-1.4c4.7-2.2,9.9-3.2,15.6-3.2c8.3,0,13,1.4,24.2,6.9c14.7,7.3,26.3,8.3,31.7,2.8c2.4-2.4,3-4.3,3.5-10.1C94,106,99.9,92.4,112,80.3c7.8-7.8,15.7-12.7,26-16.1c9.2-3,11.2-3.2,35.9-3.4l22.2-0.2v17.1c0,9.4,0,17.1,0.1,17.2c0,0,9.5,0.2,21.1,0.3l21,0.3v3.7v3.7l-21.1,0.1l-21.1,0.1v26.7v26.7l21.1,0.1l21.1,0.1l0.1,3.8l0.1,3.8h-21.3h-21.3l0.1,15.5l0.1,15.5l-22.5-0.2c-20.4-0.2-22.9-0.3-26.9-1.2c-10.6-2.3-18.2-5.7-26.5-11.9c-3.8-2.8-10.5-9.4-13.1-13c-1-1.3-1.9-2.6-2.1-2.7c-0.3-0.2-6.3,3.5-6.3,4c0,0.9,5.9,7.7,10.2,11.8c10,9.6,22.3,16.1,36.3,19.3c4.2,0.9,5.9,1,31.3,1.2l26.9,0.2l0.1-15.3l0.1-15.3l19.2-0.2c21.6-0.3,20.3,0,22.1-3.9c1.3-2.9,1.2-12.1-0.1-14.8c-1.8-3.7-1-3.5-22.3-3.8l-18.9-0.2v-19.1v-19.1l19.2-0.2c21.6-0.3,20.3,0,22.1-3.9c1.3-2.8,1.2-12.1,0-14.8c-1.8-3.7-1.1-3.6-22.4-3.9l-18.9-0.2l-0.1-17.2l-0.1-17.1l-25,0.1C164.8,53.4,152.8,53.5,151.9,53.6z"/></g></g></g>
</svg>